<svg width="229" height="141" viewBox="0 0 229 141" fill="none" xmlns="http://www.w3.org/2000/svg">
<path opacity="0.1" d="M228.522 90.2786C228.526 94.0869 228.065 97.8815 227.15 101.578C226.843 102.824 226.485 104.044 226.078 105.237C225.579 106.711 225.001 108.157 224.347 109.568C224.017 110.282 223.669 110.982 223.301 111.667C223.307 115.572 222.503 119.437 220.94 123.015C218.114 129.436 213.075 134.628 206.742 137.644C202.782 139.534 198.454 140.527 194.067 140.555H43.3844C36.6802 140.569 30.0919 138.808 24.2891 135.45L24.1999 135.399C23.3734 134.916 22.5675 134.403 21.7824 133.863C20.0159 132.642 18.3563 131.274 16.8214 129.773C14.7439 127.743 12.9133 125.475 11.3675 123.015C7.73703 117.251 5.8138 110.575 5.82054 103.763C2.1439 97.3118 0 89.584 0 81.2801C0 70.8031 3.40696 61.2458 9.00438 54.0108C10.1713 52.4993 11.4496 51.0771 12.8285 49.756C14.189 48.4487 15.6513 47.2518 17.2016 46.1764C18.442 45.3151 19.7383 44.5373 21.082 43.8482C21.6427 43.5629 22.2054 43.2933 22.7777 43.043C23.2802 42.8199 23.7885 42.6123 24.3027 42.4163C24.9197 42.1822 25.5444 41.9668 26.1769 41.7702C26.8094 41.5736 27.4335 41.4016 28.0492 41.2541C28.9546 41.033 29.8755 40.8532 30.812 40.7148C31.5881 40.6003 32.3641 40.5207 33.1402 40.4606C33.7572 40.414 34.38 40.3888 35.0067 40.3811H35.3462C36.0369 40.3811 36.7237 40.4082 37.4047 40.4548C37.4765 40.3112 37.5541 40.1657 37.6259 40.0241C37.8975 39.506 38.1789 38.9899 38.4621 38.4855C38.4615 38.481 38.4615 38.4764 38.4621 38.4719C38.5106 38.3827 38.5591 38.2954 38.6096 38.21C38.8385 37.7967 39.0772 37.3874 39.3216 36.9819C39.4342 36.7878 39.5448 36.6055 39.6592 36.4231C39.6834 36.3778 39.71 36.3337 39.7388 36.2912C39.8552 36.0971 39.9735 35.9031 40.0938 35.7091C40.6927 34.7519 41.3155 33.8116 41.9622 32.8881L42.1271 32.6514C42.228 32.5078 42.3211 32.3681 42.4337 32.2245C42.7014 31.8501 42.9769 31.4737 43.2544 31.105C43.4484 30.8412 43.6424 30.5793 43.852 30.329C44.3564 29.6823 44.8738 29.0355 45.4041 28.3888C45.9344 27.7421 46.4854 27.1038 47.0571 26.4738C47.1347 26.3865 47.2123 26.3012 47.2938 26.2158L48.1223 25.3117C48.163 25.269 48.198 25.2302 48.2368 25.1914C48.3357 25.0847 48.4308 24.978 48.5375 24.8751C48.9818 24.4037 49.4377 23.9419 49.8956 23.4821C52.2259 21.1611 54.7083 18.9982 57.3265 17.0077C57.4293 16.9262 57.5341 16.8486 57.6369 16.771C58.1297 16.4004 58.6303 16.0337 59.1309 15.6729C61.8842 13.6976 64.7623 11.9025 67.7472 10.2986C67.9529 10.1802 68.1624 10.0696 68.3739 9.96097C71.0499 8.54524 73.802 7.27831 76.6177 6.16597C78.1524 5.5587 79.722 4.98828 81.3013 4.46637C82.3529 4.12102 83.4083 3.79313 84.4774 3.48464C86.1485 3.00348 87.8313 2.57211 89.5257 2.19054C94.5177 1.07045 99.5961 0.378524 104.706 0.12231C106.258 0.0434092 107.827 0.00266597 109.415 7.90631e-05C117.072 -0.0100591 124.7 0.954854 132.115 2.87155C132.191 2.98739 132.296 3.08183 132.419 3.14598C132.543 3.21013 132.68 3.24188 132.819 3.23824H133.471C133.754 3.31585 134.035 3.39345 134.319 3.47494C135.901 3.93024 137.46 4.42757 138.996 4.96694L139.384 5.10663C143.177 6.45524 146.867 8.07628 150.426 9.95708C153.634 11.6484 156.723 13.5568 159.671 15.669C160.125 15.9949 160.573 16.3235 161.014 16.6546C161.549 16.3118 162.094 15.9833 162.647 15.669C164.785 14.4514 167.056 13.4834 169.415 12.7839C174.346 11.3246 179.564 11.1205 184.595 12.1902C191.046 13.5581 196.886 16.9534 201.602 21.7825C203.523 23.7583 205.232 25.9288 206.703 28.2588C206.81 28.4257 206.916 28.5945 207.019 28.7652C208.283 30.8274 209.37 32.9933 210.267 35.2396C210.3 35.323 210.333 35.4006 210.362 35.4821C211.19 37.5855 211.858 39.7485 212.36 41.9526C212.384 42.0651 212.411 42.1757 212.434 42.2882C212.904 44.4213 213.223 46.5848 213.389 48.7626C213.389 48.8402 213.389 48.9198 213.404 49.0013C213.486 50.1279 213.527 51.2661 213.528 52.416C213.528 53.4443 213.494 54.4648 213.43 55.4776C213.43 55.5882 213.414 55.7027 213.404 55.8171C213.387 56.1101 213.362 56.3992 213.336 56.6941C214.818 57.8893 216.205 59.1977 217.485 60.6074C218.05 61.2244 218.597 61.8647 219.126 62.5282C220.737 64.5478 222.153 66.7156 223.356 69.0026C226.636 75.1957 228.522 82.481 228.522 90.2786Z" fill="#F92020"/>
<path opacity="0.1" d="M206.598 136.926C206.598 138.251 202.033 139.493 194.067 140.56H43.3843C36.6802 140.575 30.0918 138.813 24.2891 135.456L24.1998 135.405C26.4892 134.571 30.6218 133.793 36.2464 133.091L36.4986 133.06C39.0209 132.751 41.84 132.458 44.921 132.181C44.9986 132.181 45.0781 132.169 45.1557 132.159C47.6003 131.942 50.2008 131.738 52.9572 131.548C53.0445 131.548 53.1299 131.533 53.2172 131.529C54.2804 131.452 55.3656 131.38 56.4728 131.311L56.8996 131.284C64.9611 130.784 74.1245 130.384 84.0622 130.12H84.0738C85.4656 130.081 86.8722 130.047 88.2937 130.017C89.8743 129.98 91.4743 129.947 93.0937 129.918C94.3296 129.891 95.581 129.872 96.8363 129.852H96.8654C102.529 129.767 108.38 129.724 114.364 129.724C129.16 129.724 143.145 129.994 155.536 130.479H155.571C157.477 130.553 159.347 130.634 161.171 130.718L162.723 130.791C164.781 130.89 166.786 130.995 168.737 131.108C191.69 132.413 206.598 134.534 206.598 136.926Z" fill="#F92020"/>
<g opacity="0.2">
<path opacity="0.2" d="M131.99 128.834C131.984 129.043 131.96 129.251 131.918 129.457C130.568 129.242 129.21 129.048 127.844 128.875C127.844 128.82 127.844 128.764 127.844 128.708C127.857 128.126 128.024 127.558 128.329 127.062C128.729 126.43 129.336 126.034 130.005 126.056C130.675 126.077 131.255 126.51 131.614 127.163C131.885 127.677 132.015 128.254 131.99 128.834V128.834Z" fill="#3F3D56"/>
<path opacity="0.2" d="M132.102 125.518C132.149 124.018 131.259 122.772 130.113 122.736C128.967 122.7 127.999 123.887 127.952 125.387C127.905 126.888 128.795 128.134 129.941 128.17C131.087 128.206 132.055 127.019 132.102 125.518Z" fill="#3F3D56"/>
<path opacity="0.2" d="M132.208 122.197C132.255 120.696 131.365 119.451 130.219 119.414C129.073 119.378 128.105 120.565 128.058 122.066C128.01 123.566 128.901 124.812 130.047 124.848C131.193 124.884 132.16 123.697 132.208 122.197Z" fill="#3F3D56"/>
<path opacity="0.2" d="M132.312 118.875C132.359 117.375 131.469 116.129 130.323 116.093C129.177 116.056 128.209 117.243 128.162 118.744C128.114 120.244 129.005 121.49 130.151 121.526C131.297 121.563 132.264 120.376 132.312 118.875Z" fill="#3F3D56"/>
<path opacity="0.2" d="M132.415 115.553C132.463 114.053 131.572 112.807 130.426 112.771C129.28 112.735 128.313 113.922 128.266 115.422C128.218 116.923 129.109 118.168 130.255 118.205C131.401 118.241 132.368 117.054 132.415 115.553Z" fill="#3F3D56"/>
<path opacity="0.2" d="M123.279 92.5059C123.006 92.136 122.759 91.747 122.542 91.3418L128.025 90.6181L122.123 90.4765C121.596 89.2272 121.33 87.8836 121.34 86.5279C121.35 85.1721 121.637 83.8327 122.183 82.5916L129.967 86.9473L122.837 81.3518C123.556 80.1885 124.507 79.1859 125.631 78.4068C126.756 77.6276 128.028 77.0887 129.37 76.8235C130.712 76.5583 132.094 76.5727 133.43 76.8657C134.766 77.1586 136.027 77.7239 137.135 78.5262C138.243 79.3286 139.173 80.3507 139.868 81.5287C140.563 82.7068 141.008 84.0155 141.174 85.3731C141.341 86.7307 141.226 88.108 140.836 89.419C140.446 90.7301 139.79 91.9467 138.909 92.9929C139.334 93.5683 139.695 94.1883 139.986 94.8419L132.79 98.2954L140.42 96.0002C140.901 97.5858 140.978 99.2662 140.646 100.889C140.313 102.512 139.581 104.027 138.515 105.296C139.623 106.799 140.286 108.583 140.427 110.445C140.568 112.307 140.183 114.171 139.315 115.824C138.446 117.478 137.131 118.853 135.517 119.794C133.904 120.734 132.059 121.202 130.193 121.143C128.326 121.084 126.514 120.501 124.964 119.461C123.413 118.421 122.186 116.965 121.424 115.26C120.662 113.556 120.394 111.671 120.653 109.822C120.911 107.972 121.685 106.233 122.885 104.803C121.562 103.006 120.88 100.817 120.951 98.5872C121.021 96.357 121.839 94.2152 123.273 92.5059H123.279Z" fill="#F92020"/>
<path opacity="0.1" d="M140.843 99.2151C140.775 101.447 139.955 103.589 138.515 105.296C139.623 106.799 140.286 108.583 140.427 110.445C140.568 112.307 140.183 114.171 139.315 115.824C138.446 117.478 137.131 118.853 135.517 119.794C133.904 120.734 132.059 121.202 130.193 121.143C128.326 121.084 126.514 120.501 124.964 119.461C123.413 118.421 122.186 116.965 121.424 115.26C120.662 113.556 120.394 111.671 120.653 109.822C120.911 107.972 121.685 106.233 122.885 104.803C121.61 103.07 140.878 98.0995 140.843 99.2151Z" fill="black"/>
</g>
<g opacity="0.2">
<path opacity="0.2" d="M102.5 128.834C102.493 129.043 102.469 129.251 102.428 129.457C101.078 129.242 99.7194 129.048 98.3535 128.875C98.3535 128.82 98.3535 128.764 98.3535 128.708C98.3662 128.126 98.5336 127.558 98.8386 127.062C99.2382 126.43 99.8455 126.034 100.515 126.056C101.184 126.077 101.764 126.51 102.123 127.163C102.395 127.677 102.525 128.254 102.5 128.834V128.834Z" fill="#3F3D56"/>
<path opacity="0.2" d="M102.609 125.519C102.656 124.019 101.766 122.773 100.62 122.737C99.474 122.701 98.5066 123.888 98.4591 125.388C98.4117 126.889 99.3023 128.134 100.448 128.171C101.594 128.207 102.562 127.02 102.609 125.519Z" fill="#3F3D56"/>
<path opacity="0.2" d="M102.715 122.198C102.762 120.697 101.872 119.451 100.726 119.415C99.5798 119.379 98.6124 120.566 98.565 122.066C98.5176 123.567 99.4081 124.813 100.554 124.849C101.7 124.885 102.667 123.698 102.715 122.198Z" fill="#3F3D56"/>
<path opacity="0.2" d="M102.819 118.876C102.866 117.375 101.976 116.13 100.83 116.093C99.6838 116.057 98.7164 117.244 98.669 118.745C98.6216 120.245 99.5121 121.491 100.658 121.527C101.804 121.563 102.771 120.376 102.819 118.876Z" fill="#3F3D56"/>
<path opacity="0.2" d="M102.923 115.554C102.97 114.054 102.08 112.808 100.934 112.772C99.7876 112.736 98.8202 113.923 98.7727 115.423C98.7253 116.924 99.6159 118.169 100.762 118.205C101.908 118.242 102.875 117.055 102.923 115.554Z" fill="#3F3D56"/>
<path opacity="0.2" d="M93.7882 92.5059C93.515 92.136 93.2686 91.747 93.051 91.3418L98.5339 90.6181L92.6319 90.4765C92.1052 89.2272 91.8389 87.8836 91.8492 86.5279C91.8596 85.1721 92.1463 83.8327 92.692 82.5916L100.476 86.9473L93.3459 81.3518C94.0652 80.1885 95.0166 79.1859 96.1407 78.4068C97.2649 77.6276 98.5376 77.0887 99.8794 76.8235C101.221 76.5583 102.603 76.5727 103.939 76.8657C105.275 77.1586 106.537 77.7239 107.644 78.5262C108.752 79.3286 109.683 80.3507 110.378 81.5287C111.072 82.7068 111.517 84.0155 111.684 85.3731C111.85 86.7307 111.735 88.108 111.345 89.419C110.955 90.7301 110.299 91.9467 109.418 92.9929C109.843 93.5683 110.204 94.1883 110.495 94.8419L103.299 98.2954L110.93 96.0002C111.41 97.5858 111.488 99.2662 111.155 100.889C110.822 102.512 110.09 104.027 109.024 105.296C110.132 106.799 110.795 108.583 110.936 110.445C111.078 112.307 110.692 114.171 109.824 115.824C108.956 117.478 107.64 118.853 106.027 119.794C104.414 120.734 102.568 121.202 100.702 121.143C98.8356 121.084 97.0235 120.501 95.4728 119.461C93.9222 118.421 92.6955 116.965 91.9332 115.26C91.1709 113.556 90.9036 111.671 91.162 109.822C91.4204 107.972 92.194 106.233 93.3944 104.803C92.0708 103.006 91.3895 100.817 91.4598 98.5872C91.5302 96.357 92.3482 94.2152 93.7824 92.5059H93.7882Z" fill="#F92020"/>
<path opacity="0.1" d="M111.353 99.2151C111.285 101.447 110.464 103.589 109.024 105.296C110.132 106.799 110.795 108.583 110.936 110.445C111.078 112.307 110.692 114.171 109.824 115.824C108.956 117.478 107.64 118.853 106.027 119.794C104.414 120.734 102.568 121.202 100.702 121.143C98.8356 121.084 97.0235 120.501 95.4728 119.461C93.9222 118.421 92.6955 116.965 91.9332 115.26C91.1709 113.556 90.9036 111.671 91.162 109.822C91.4204 107.972 92.194 106.233 93.3944 104.803C92.1197 103.07 111.388 98.0995 111.353 99.2151Z" fill="black"/>
</g>
<g opacity="0.2">
<path opacity="0.2" d="M183.056 130.956C183.041 131.353 182.994 131.747 182.914 132.136C180.314 131.721 177.696 131.35 175.058 131.022C175.058 130.918 175.058 130.811 175.058 130.702C175.083 129.582 175.406 128.488 175.994 127.534C176.77 126.318 177.934 125.555 179.22 125.594C180.507 125.633 181.626 126.469 182.324 127.728C182.851 128.72 183.104 129.834 183.056 130.956V130.956Z" fill="#3F3D56"/>
<path opacity="0.2" d="M183.267 124.569C183.358 121.679 181.643 119.28 179.436 119.21C177.228 119.141 175.365 121.427 175.274 124.316C175.182 127.206 176.898 129.605 179.105 129.674C181.312 129.744 183.176 127.458 183.267 124.569Z" fill="#3F3D56"/>
<path opacity="0.2" d="M183.469 118.174C183.56 115.284 181.845 112.885 179.637 112.815C177.43 112.746 175.567 115.032 175.475 117.921C175.384 120.811 177.099 123.21 179.307 123.279C181.514 123.349 183.378 121.063 183.469 118.174Z" fill="#3F3D56"/>
<path opacity="0.2" d="M183.673 111.779C183.764 108.889 182.049 106.49 179.841 106.421C177.634 106.351 175.77 108.637 175.679 111.526C175.588 114.416 177.303 116.815 179.511 116.885C181.718 116.954 183.581 114.668 183.673 111.779Z" fill="#3F3D56"/>
<path opacity="0.2" d="M183.647 105.093C183.733 102.202 182.013 99.8047 179.805 99.7384C177.596 99.6722 175.736 101.962 175.649 104.853C175.562 107.744 177.282 110.141 179.491 110.208C181.699 110.274 183.56 107.984 183.647 105.093Z" fill="#3F3D56"/>
<path opacity="0.2" d="M166.283 61.0207C165.76 60.3085 165.286 59.561 164.865 58.7837L175.42 57.3906L164.06 57.1171C163.045 54.7122 162.532 52.1256 162.551 49.5155C162.57 46.9054 163.122 44.3267 164.172 41.9371L179.16 50.3206L165.435 39.5487C166.823 37.3144 168.656 35.3899 170.82 33.895C172.984 32.4002 175.433 31.3671 178.014 30.8601C180.595 30.3532 183.253 30.3832 185.821 30.9483C188.39 31.5135 190.815 32.6017 192.945 34.145C195.075 35.6884 196.864 37.6538 198.201 39.9189C199.537 42.184 200.394 44.7002 200.715 47.3106C201.037 49.9211 200.818 52.5698 200.071 55.0918C199.325 57.6138 198.067 59.955 196.375 61.9695C197.193 63.0782 197.888 64.2718 198.449 65.5297L184.595 72.1826L199.284 67.759C200.209 70.8078 200.36 74.0394 199.722 77.1612C199.084 80.283 197.678 83.1964 195.63 85.6377C197.763 88.5315 199.038 91.9669 199.31 95.5512C199.582 99.1355 198.839 102.724 197.168 105.906C195.496 109.089 192.963 111.736 189.858 113.547C186.752 115.357 183.2 116.257 179.608 116.144C176.015 116.031 172.526 114.909 169.541 112.906C166.556 110.904 164.195 108.102 162.727 104.82C161.259 101.539 160.745 97.911 161.242 94.351C161.739 90.7909 163.228 87.4427 165.538 84.689C162.992 81.2309 161.681 77.0175 161.816 72.725C161.951 68.4325 163.524 64.3098 166.283 61.0188V61.0207Z" fill="#F92020"/>
<path opacity="0.1" d="M200.1 73.9345C199.973 78.2279 198.401 82.3528 195.638 85.6416C197.77 88.5354 199.045 91.9708 199.317 95.5551C199.589 99.1393 198.847 102.728 197.176 105.91C195.504 109.092 192.971 111.74 189.866 113.551C186.76 115.361 183.208 116.261 179.615 116.148C176.022 116.035 172.534 114.913 169.549 112.91C166.564 110.908 164.202 108.106 162.735 104.824C161.267 101.543 160.752 97.9149 161.249 94.3549C161.747 90.7948 163.235 87.4465 165.546 84.6928C163.074 81.3538 200.168 71.7868 200.1 73.9345Z" fill="black"/>
</g>
<path d="M30.6238 131.298L32.659 131.292H35.5286L39.1567 72.3532L75.0869 12.3958L73.525 10.7195V6.47437L34.6671 70.964L30.6238 131.298Z" fill="#F1C0C0"/>
<path opacity="0.1" d="M32.8765 131.292H35.5287L39.1568 72.3532L75.087 12.3958L73.5252 10.7195L36.4639 71.4549L32.8765 131.292Z" fill="black"/>
<path d="M24.6267 131.789L117.726 138.913L117.806 138.919L207.906 133.378L207.974 133.374V129.569L108.695 127.747L25.8665 127.668H25.2611L25.1952 128.095L24.6267 131.789Z" fill="#F1C0C0"/>
<path opacity="0.1" d="M24.6267 131.789L117.726 138.913L117.806 138.919L207.906 133.378L207.974 133.304V129.649H207.894L117.726 132.66L25.8665 127.668H25.8529L25.6899 127.775L25.1952 128.095L24.6267 131.789Z" fill="black"/>
<path opacity="0.1" d="M24.6267 131.789L117.726 138.913V132.66L25.6899 127.775L25.1952 128.095L24.6267 131.789Z" fill="black"/>
<path d="M73.5134 10.64L114.558 54.6937L113.289 132.185L116.776 132.606L116.834 132.613H120.32L120.737 58.0211L197.594 83.6936L198.89 129.404L201.695 129.719L202.646 129.825L200.446 80.5233L120.103 52.317L76.0492 6.51904H73.5134V10.64Z" fill="#F1C0C0"/>
<path opacity="0.1" d="M120.421 56.5951L120.737 58.0211L197.594 83.6936L198.89 129.404L201.695 129.719L199.495 82.7429L120.421 56.5951Z" fill="black"/>
<path opacity="0.1" d="M73.5134 10.64L114.558 54.6937L113.289 132.185L116.776 132.606L117.726 52.1579L73.5134 6.51904V10.64Z" fill="black"/>
<path d="M120.571 87.6943L148.759 93.2451L148.769 93.2471L198.141 102.973L200.401 102.067L200.393 101.908L200.246 98.7552L120.6 82.6614L120.571 87.6943Z" fill="#F1C0C0"/>
<path opacity="0.1" d="M148.769 93.2471L198.141 102.973L200.401 102.067L200.393 101.908L148.769 93.2471Z" fill="black"/>
<path d="M150.657 68.0151L151.419 109.989L151.813 131.523L155.284 131.407L157.469 131.333L156.79 68.6224L155.284 68.1218L154.954 68.0151H150.657Z" fill="#F1C0C0"/>
<path opacity="0.1" d="M150.688 68.0053V68.015L151.419 109.989L151.813 131.523L155.284 131.407V68.0053H150.688Z" fill="black"/>
<path d="M96.2872 78.7346C96.4909 78.8452 96.6855 78.9717 96.8693 79.1129C97.0866 79.3032 97.2819 79.5173 97.4513 79.7512C98.2837 80.828 99.052 82.0794 98.9705 83.4375C98.9722 83.6351 98.9349 83.8311 98.8607 84.0143C98.7864 84.1974 98.6767 84.3641 98.5378 84.5046C98.1944 84.7976 97.7016 84.8112 97.2515 84.8112C96.7626 84.8112 96.2484 84.8112 95.8255 84.559C95.4025 84.3068 95.0494 83.8159 94.5488 83.8275C94.4782 83.8392 94.4061 83.8392 94.3354 83.8275C94.1627 83.7713 94.1278 83.5443 94.0153 83.4007C93.8213 83.1426 93.4119 83.2067 93.1073 83.3192C92.8027 83.4317 92.4651 83.6005 92.1643 83.4705C91.9898 83.3784 91.8471 83.2357 91.755 83.0612C91.0352 81.897 90.8819 80.4982 90.7461 79.1459C90.6626 78.3232 90.0263 75.5177 91.7821 76.1561C92.5582 76.4354 93.2838 76.9942 93.9901 77.4036L96.2872 78.7346Z" fill="#3F3D56"/>
<path d="M94.5528 79.012C94.7096 79.1248 94.8997 79.1819 95.0927 79.1741C95.2857 79.1664 95.4706 79.0943 95.6179 78.9693C95.9068 78.7083 96.0909 78.3511 96.136 77.9643C96.33 77.9041 96.4289 78.1583 96.5531 78.3135C96.7704 78.5774 97.2128 78.5735 97.4107 78.8548C97.5484 79.0489 97.5174 79.3185 97.6144 79.5378C97.7405 79.821 98.0528 79.9685 98.2663 80.1974C98.4678 80.4476 98.6134 80.738 98.6931 81.0492L99.0113 82.0038C99.1635 82.4007 99.2614 82.8164 99.3023 83.2396C99.3224 83.4512 99.3001 83.6646 99.2368 83.8675C99.1736 84.0704 99.0705 84.2586 98.9337 84.4212C98.5069 84.881 97.8064 84.9295 97.1875 84.916C96.9808 84.9204 96.7745 84.8962 96.5744 84.8442C96.0254 84.6734 95.6742 84.1205 95.5287 83.5637C95.3832 83.0068 95.3987 82.4228 95.3133 81.8524C95.2211 81.2921 95.0581 80.7458 94.8283 80.2265C94.6575 79.823 94.188 79.2215 94.1958 78.7927C94.3355 78.7927 94.4364 78.9208 94.5528 79.012Z" fill="#3F3D56"/>
<path d="M95.2492 77.0466C95.1585 76.7711 95.1057 76.4846 95.0921 76.1948C95.0921 75.6128 95.3579 75.0657 95.6256 74.5457L93.408 74.8464C93.1403 74.8833 92.8415 74.9376 92.6901 75.1607C92.6327 75.2713 92.6027 75.3941 92.6027 75.5187C92.6027 75.6433 92.6327 75.7661 92.6901 75.8766C92.8013 76.098 92.8897 76.3301 92.954 76.5693C92.959 76.7786 92.9831 76.9871 93.0258 77.1921C93.0948 77.3427 93.1916 77.4789 93.311 77.5937C93.9454 78.2961 94.4208 79.1245 94.8942 79.9452C94.8806 79.9219 96.231 78.8762 96.1767 78.5347C96.1456 78.3407 95.7556 78.1079 95.6315 77.9216C95.4599 77.6512 95.331 77.3561 95.2492 77.0466V77.0466Z" fill="#BE6F72"/>
<path d="M114.263 69.4663V71.3774L81.5379 77.7605L79.8402 78.7888H73.9828V77.712L106.135 69.9436L114.263 69.4663Z" fill="#F1C0C0"/>
<path opacity="0.1" d="M114.263 71.3774L81.5379 77.7606L79.8402 78.7889H73.9828L106.374 71.8566L114.263 71.3774Z" fill="black"/>
<path d="M87.9893 123.718C87.6247 123.276 87.1213 122.971 86.5612 122.852C86.001 122.733 85.4171 122.807 84.9044 123.062C84.7946 123.114 84.6979 123.189 84.6211 123.283C84.4271 123.555 84.5513 123.929 84.5687 124.265C84.6134 125.084 83.9615 125.749 83.3755 126.321C83.0612 126.628 82.7411 126.956 82.5994 127.373C82.4578 127.79 82.5626 128.32 82.9429 128.537C83.1088 128.62 83.2894 128.67 83.4745 128.684C84.0946 128.805 84.7305 128.823 85.3564 128.737C85.9754 128.619 86.5826 128.267 86.8504 127.697C86.902 127.542 86.9875 127.401 87.1007 127.284C87.4421 127.014 87.966 127.33 88.354 127.138C88.6742 126.979 88.6877 126.729 88.6916 126.399C88.7033 125.487 88.5674 124.455 87.9893 123.718Z" fill="#F92020"/>
<path d="M92.6455 123.683C92.8842 124.311 92.9172 124.996 92.9482 125.668C92.9657 126.056 92.9773 126.471 92.7678 126.799C92.5582 127.127 92.1489 127.299 91.7569 127.381C90.9479 127.548 90.0108 127.39 89.4889 126.748C89.0892 126.257 89.0058 125.584 89.0795 124.948C89.1416 124.426 89.2735 123.815 88.8991 123.444C88.8021 123.345 88.6759 123.275 88.5867 123.169C88.3927 122.932 88.4237 122.575 88.5285 122.284C88.6649 122.006 88.7672 121.712 88.8331 121.409C88.8486 121.265 91.4601 121.51 91.7007 121.628C92.0286 121.789 91.9781 122.059 92.0771 122.385C92.2148 122.839 92.4787 123.248 92.6455 123.683Z" fill="#F92020"/>
<path d="M93.1247 95.8101C93.6369 96.1418 93.8348 96.7937 93.9143 97.3991C94.1336 99.0579 93.7494 100.734 93.7203 102.409C93.6932 104.754 94.3722 107.143 93.7921 109.415C93.4448 110.773 93.7397 112.325 93.4138 113.697C93.3168 114.104 93.1383 114.488 93.0451 114.896C92.8511 115.778 93.0548 116.702 93.3284 117.565C93.4157 117.798 93.4712 118.041 93.4933 118.289C93.4802 118.67 93.3835 119.044 93.2101 119.383L92.0459 122.136C91.916 122.445 91.4037 122.495 91.0759 122.536C90.4589 122.61 89.7701 122.662 89.2793 122.28C88.7884 121.898 88.67 121.257 88.5944 120.66C88.4492 119.513 88.3844 118.357 88.4003 117.201C88.4217 116.899 88.3948 116.596 88.3208 116.302C88.2141 115.97 87.9793 115.683 87.9153 115.332C87.8338 114.878 88.0647 114.432 88.1501 113.974C88.2086 113.556 88.2021 113.131 88.1307 112.715C88.055 112.094 87.9677 111.473 87.8687 110.856C87.729 109.993 87.9289 109.141 88.0628 108.276C88.1889 107.463 88.0278 106.634 87.8687 105.827C87.8825 106.482 87.8008 107.136 87.6262 107.767C87.5234 108.076 87.3759 108.371 87.2867 108.685C86.8889 110.096 87.7368 111.576 87.6165 113.037C87.5602 113.72 87.2925 114.395 87.3682 115.068C87.4206 115.561 87.6495 116.013 87.8067 116.483C87.9638 116.952 88.0453 117.49 87.8067 117.928C87.1761 119.119 87.6476 120.739 88.2122 121.962C88.3268 122.179 88.4266 122.403 88.5109 122.633C88.6778 123.184 88.5381 123.776 88.5827 124.35C88.4202 124.377 88.2538 124.366 88.0961 124.318C87.9385 124.271 87.7937 124.188 87.6728 124.077C87.5874 123.987 87.5176 123.883 87.4341 123.789C87.201 123.567 86.9251 123.395 86.6231 123.283C86.4459 123.184 86.2439 123.137 86.0411 123.149C85.8279 123.209 85.636 123.328 85.4881 123.493C85.2962 123.661 85.0927 123.816 84.8789 123.956C84.7879 124.026 84.6815 124.073 84.5685 124.094C84.5117 124.103 84.4536 124.093 84.4024 124.067C84.3512 124.041 84.3095 124 84.2833 123.948C84.2712 123.916 84.264 123.882 84.2619 123.848C84.1899 123.262 84.1517 122.672 84.1475 122.082C84.1475 121.067 82.9329 120.369 82.7796 119.366C82.6574 118.557 82.8844 117.732 82.8087 116.917C82.7719 116.498 82.6555 116.087 82.6632 115.668C82.6632 115.396 82.7253 115.13 82.7467 114.861C82.7644 114.561 82.7599 114.261 82.7331 113.962L82.6729 113.025C82.6147 112.1 82.5507 111.155 82.186 110.309C81.7534 109.321 81.4973 108.265 81.4293 107.189C81.3905 106.51 81.4157 105.831 81.3381 105.15C81.2682 104.535 81.113 103.924 81.1577 103.307C81.1945 102.83 81.3517 102.368 81.3885 101.891C81.4642 100.973 81.115 100.08 80.8414 99.2015C80.5678 98.3226 80.3661 97.3486 80.725 96.5008C80.7763 96.3616 80.8617 96.2375 80.9733 96.1399C81.111 96.0488 81.2676 95.9904 81.4312 95.9692C84.7601 95.2699 88.1721 95.0523 91.5628 95.3231C92.1156 95.3544 92.6521 95.5217 93.1247 95.8101Z" fill="#3F3D56"/>
<path d="M82.1105 75.2034C83.8271 75.2034 85.2187 73.8119 85.2187 72.0953C85.2187 70.3787 83.8271 68.9871 82.1105 68.9871C80.3939 68.9871 79.0023 70.3787 79.0023 72.0953C79.0023 73.8119 80.3939 75.2034 82.1105 75.2034Z" fill="#BE6F72"/>
<path d="M81.5091 75.9775C81.5538 76.1552 81.5538 76.3412 81.5091 76.5188C81.4602 76.643 81.3914 76.7583 81.3054 76.8603C81.0045 77.2484 80.6716 77.6106 80.3101 77.9429C80.4942 78.3543 80.8258 78.6817 81.2394 78.8606C81.6501 79.0355 82.0809 79.1586 82.5219 79.2273C82.742 79.2852 82.9711 79.301 83.197 79.2739C83.4053 79.2216 83.6025 79.1322 83.7791 79.01L85.5059 77.9759C85.7664 77.8348 86.0077 77.6607 86.2237 77.4579C86.5404 77.1324 86.7197 76.6975 86.7243 76.2433C86.7323 76.162 86.7102 76.0805 86.6622 76.0144C86.596 75.9568 86.513 75.9221 86.4255 75.9155C85.8182 75.7816 85.339 75.2888 85.0674 74.73C84.8218 74.1572 84.6629 73.551 84.5959 72.9315L82.7547 73.9015C82.4811 74.0471 82.2095 74.1926 81.9262 74.3187C81.7458 74.4002 81.381 74.4681 81.253 74.633C81.0085 74.9376 81.4451 75.6108 81.5091 75.9775Z" fill="#BE6F72"/>
<path d="M80.3214 77.3783C80.0593 77.5933 79.8546 77.8699 79.7258 78.1835C79.6055 78.5715 79.7258 78.9809 79.8344 79.3651C80.3436 81.0025 80.7327 82.6748 80.9985 84.3688C81.1615 85.5329 81.2217 86.7145 81.3012 87.8922C81.4642 90.2941 81.7009 94.124 82.0171 96.5105C83.1812 96.5628 84.3163 96.2233 85.4707 96.0991C87.6281 95.8702 89.8496 96.394 91.9625 95.9051C91.4503 93.8815 90.9381 90.426 90.4259 88.4044C90.1992 87.6078 90.0421 86.7931 89.9564 85.9694C89.9117 85.3777 89.9389 84.784 89.9467 84.1884C89.9641 83.0243 89.9001 81.8601 89.8361 80.696C89.7623 79.3379 89.6886 77.9798 89.3665 76.6508C89.3441 76.4814 89.2647 76.3247 89.1415 76.2065C88.9475 76.0648 88.6952 76.1153 88.4644 76.1463C87.7574 76.2361 87.0419 76.0665 86.4504 75.669C86.1943 75.4944 85.8509 75.281 85.6123 75.475C85.5104 75.592 85.4433 75.7352 85.4183 75.8883C85.3127 76.1627 85.1497 76.4115 84.9403 76.618C84.7308 76.8244 84.4797 76.9838 84.2037 77.0854C83.6508 77.2856 83.0718 77.4045 82.4847 77.4385C82.3051 77.477 82.1177 77.4559 81.9512 77.3783C81.6757 77.2095 81.6563 76.6023 81.309 76.5615C81.0044 76.5266 80.5271 77.1824 80.3214 77.3783Z" fill="#3F3D56"/>
<path d="M84.9122 82.1163C84.1963 81.4314 83.882 80.438 83.36 79.594C83.0047 79.0265 82.5506 78.5271 82.0194 78.1195C81.7523 77.9431 81.5074 77.7353 81.2899 77.5006C81.1056 77.2736 80.9659 76.9709 80.6865 76.8836C80.571 76.8585 80.4512 76.8618 80.3373 76.8932C80.2234 76.9246 80.1189 76.9833 80.0326 77.064C79.8616 77.227 79.6997 77.3993 79.5476 77.5801C78.725 78.4319 77.2795 78.5502 76.6276 79.5358C76.4517 79.7448 76.3322 79.9952 76.2803 80.2634C76.0926 81.6979 76.4636 83.1497 77.3164 84.3184C77.4815 84.5893 77.7351 84.7949 78.0343 84.9004C77.9937 85.2622 78.0416 85.6284 78.1739 85.9675C78.5332 87.1955 78.9746 88.3979 79.4952 89.5666C79.3707 90.0237 79.2838 90.4903 79.2352 90.9616C79.0994 92.147 79.2255 93.3499 79.0975 94.5373C78.9927 95.5074 78.7094 96.4523 78.6997 97.4243C78.6997 97.5795 78.7133 97.7638 78.8472 97.8434C78.9184 97.88 78.9982 97.8967 79.0781 97.8919L81.4645 97.9637C82.8498 98.0044 84.2486 98.0452 85.6126 97.7891C85.7942 97.7622 85.9704 97.7065 86.1345 97.6241C86.5963 97.3661 86.7495 96.784 86.8233 96.266C86.9196 95.5941 86.9579 94.9151 86.9377 94.2366C87.2268 95.1504 87.5702 96.0953 88.4433 96.4911C88.9051 96.7006 89.4328 96.6851 89.9392 96.6715C91.0306 96.6229 92.1183 96.5108 93.1968 96.3358C93.2632 96.3441 93.3307 96.3367 93.3938 96.3142C93.4568 96.2917 93.5137 96.2547 93.56 96.2062C93.6062 96.1577 93.6404 96.0991 93.6599 96.035C93.6793 95.971 93.6835 95.9032 93.6721 95.8372L93.6837 94.7779C93.707 92.6262 93.1735 90.5696 92.9659 88.4277C92.8999 87.7525 92.9057 87.0695 92.7408 86.4079C92.6729 86.1305 92.574 85.8589 92.5138 85.5795C92.462 85.306 92.4296 85.0291 92.4168 84.751L92.2655 82.6168C92.1937 81.6293 92.0909 80.6767 92.0152 79.691C91.9736 78.7313 91.8345 77.7783 91.6 76.8467C91.4312 76.2647 91.08 75.605 90.4727 75.5332C90.1487 75.4964 89.8344 75.638 89.5259 75.737C88.7677 75.9757 87.9539 75.9723 87.1977 75.7273C86.9641 75.635 86.7206 75.5699 86.4721 75.5332C86.347 75.5162 86.2196 75.5328 86.103 75.5812C85.9864 75.6296 85.8848 75.7081 85.8086 75.8087C85.7333 75.9603 85.6979 76.1286 85.7057 76.2977C85.6145 78.2359 85.4457 80.2324 84.9122 82.1163Z" fill="#F92020"/>
<path d="M81.7904 82.1744C80.8959 81.2315 79.9782 80.2711 78.8258 79.6716C78.3718 79.4349 77.8557 79.2564 77.3532 79.3457C76.8507 79.4349 76.3831 79.8714 76.4064 80.3817C76.4219 80.698 76.614 80.9774 76.6741 81.2878C76.7439 81.637 76.6431 82.0095 76.7517 82.3471C76.84 82.5696 76.9719 82.7721 77.1397 82.9428L78.5134 84.5706C79.0954 85.2496 79.6775 85.9384 80.4264 86.4079C81.1753 86.8774 82.1454 87.0967 82.968 86.763C83.5533 86.4909 84.04 86.0443 84.3611 85.4844C84.7026 84.9411 84.9431 84.3474 85.2633 83.7867C85.7615 82.8908 86.419 82.0933 87.2035 81.4333C86.7999 81.3285 86.2935 81.1811 86.0393 80.8512C85.967 80.7464 85.9053 80.6346 85.855 80.5175L85.5407 79.8385C85.4338 79.8329 85.3269 79.8495 85.2268 79.8872C85.1266 79.925 85.0353 79.983 84.9587 80.0577C84.8239 80.2135 84.6794 80.3606 84.526 80.4981C84.2524 80.7038 83.8819 80.76 83.6335 80.9948C83.5374 81.0956 83.4504 81.2047 83.3735 81.3208C83.1857 81.5676 82.9473 81.7715 82.6742 81.9188C82.4012 82.066 82.0998 82.1532 81.7904 82.1744V82.1744Z" fill="#3F3D56"/>
<path d="M87.2752 78.1176C87.9485 76.8894 87.9175 75.4168 88.1095 74.0296C88.1303 73.6622 88.2593 73.3092 88.4801 73.0149C88.8681 72.5764 89.553 72.5706 90.139 72.6268C90.3116 72.6462 90.527 72.7277 90.5173 72.9004C90.5037 72.9623 90.4735 73.0193 90.43 73.0653C89.8621 73.7983 89.5281 74.6853 89.4715 75.6108C89.7761 75.8223 90.2476 75.3877 90.5406 75.6108C90.7346 75.7738 90.6453 76.0959 90.5289 76.3287C90.2586 76.8681 89.9799 77.4036 89.6927 77.9352C89.4635 78.4037 89.1645 78.8348 88.8061 79.2138C88.5596 79.4505 88.2706 79.6367 88.0203 79.8695C87.4382 80.4147 87.087 81.185 86.4856 81.7166C86.4348 81.7716 86.366 81.8067 86.2916 81.8155C86.2151 81.8101 86.1429 81.7778 86.0879 81.7243C85.7874 81.48 85.5382 81.1786 85.3545 80.8377C85.1255 80.4147 85.1604 80.2906 85.5213 79.9918C86.1965 79.4582 86.8542 78.8859 87.2752 78.1176Z" fill="#BE6F72"/>
<path d="M80.6649 81.3402C80.7813 81.412 80.9249 81.4935 81.053 81.4333C81.1053 81.4017 81.1497 81.3586 81.1829 81.3072C81.4048 81.0112 81.5898 80.6894 81.734 80.3488C81.7588 80.3007 81.7727 80.2477 81.7747 80.1936C81.7747 80.0694 81.6641 79.9782 81.5613 79.9064C81.0103 79.5552 80.4179 79.2737 79.7977 79.0683C79.2854 78.8742 78.75 78.7054 78.2067 78.754C78.0026 78.7677 77.8033 78.8225 77.621 78.9152C77.4386 79.0079 77.2768 79.1365 77.1454 79.2933C76.7574 79.7919 77.4074 79.9433 77.8148 80.1237C78.7577 80.5525 79.7783 80.8008 80.6649 81.3402Z" fill="#F92020"/>
<path opacity="0.1" d="M80.0537 84.6385C80.0472 84.6828 80.0511 84.728 80.0653 84.7705C80.0795 84.8129 80.1034 84.8515 80.1352 84.883C80.1915 84.6075 80.1178 84.3165 80.176 84.039C80.2613 83.6219 80.6668 83.3076 80.7018 82.8885C79.9587 82.743 80.0596 84.1884 80.0537 84.6385Z" fill="black"/>
<path opacity="0.2" d="M114.263 69.4663V71.3774L106.374 71.8566L106.136 69.9436L114.263 69.4663Z" fill="black"/>
<path d="M79.3126 72.557C79.8054 72.1554 79.5202 71.3134 79.8539 70.774C80.0479 70.4791 80.3758 70.3239 80.6979 70.1919C81.0866 70.0101 81.5031 69.8946 81.9299 69.8505C82.1437 69.8299 82.3594 69.8578 82.5609 69.932C82.7624 70.0063 82.9446 70.1249 83.094 70.2792C83.2201 70.4228 83.3055 70.5974 83.4239 70.7468C83.5704 70.9211 83.7615 71.0525 83.9767 71.1269C84.1919 71.2014 84.4232 71.2162 84.6462 71.1698C84.9042 71.1116 85.172 70.9156 85.1545 70.6518C85.1254 70.4913 85.0434 70.3451 84.9217 70.2366L84.3668 69.6215C83.7362 68.9231 83.0358 68.1819 82.1104 68.0073C81.4662 67.8851 80.8066 68.0577 80.1857 68.2653C79.9354 68.3488 79.6541 68.4729 79.5842 68.7271C79.5377 68.9017 79.6075 69.0918 79.5668 69.2684C79.4872 69.6196 79.0371 69.7379 78.8276 70.0328C78.618 70.3277 78.6821 70.677 78.6219 71.0029C78.5618 71.3289 78.3872 71.6471 78.3658 71.9847C78.3522 72.1884 78.4551 72.5667 78.684 72.6404C78.9129 72.7142 79.171 72.3145 79.3126 72.557Z" fill="#3F3D56"/>
<path d="M84.9665 70.3723C84.8029 69.5187 84.4502 68.7126 83.9343 68.0131C83.4756 67.3595 82.8374 66.8528 82.0969 66.554C81.7268 66.4094 81.3287 66.3505 80.9325 66.3817C80.5363 66.413 80.1524 66.5336 79.8095 66.7345C79.3004 67.0978 78.9043 67.5975 78.6667 68.176C78.1642 69.2587 77.9779 70.5819 78.5619 71.6218C78.7948 71.3385 79.1944 71.4666 79.5476 71.3638C79.9899 71.2376 80.3644 70.9427 80.7854 70.7584C82.0562 70.1977 83.6083 70.6517 84.9665 70.3723Z" fill="#FED253"/>
<path opacity="0.1" d="M78.8586 70.3122C78.814 69.963 78.7849 69.5575 79.0333 69.3091C79.0456 69.2939 79.0613 69.2818 79.0792 69.2737C79.097 69.2656 79.1165 69.2618 79.1361 69.2625C79.1534 69.2682 79.1694 69.2773 79.1831 69.2893C79.1967 69.3013 79.2078 69.316 79.2156 69.3324C79.359 69.5586 79.4811 69.7976 79.5804 70.0464C79.4358 70.0131 79.2845 70.0239 79.1462 70.0775C79.0078 70.1311 78.8887 70.225 78.8043 70.3471" fill="black"/>
<path opacity="0.1" d="M83.3931 69.3266L83.3232 68.634C83.312 68.5769 83.3167 68.5178 83.3368 68.4632C83.366 68.4175 83.4112 68.3843 83.4635 68.37C83.5158 68.3556 83.5716 68.3612 83.6201 68.3856C83.7155 68.4385 83.7942 68.5172 83.8471 68.6126C84.0086 68.8605 84.1426 69.1253 84.2467 69.4023C83.9343 69.3421 83.6128 69.346 83.3019 69.4139" fill="black"/>
<path opacity="0.1" d="M85.1295 97.4379V99.0211L83.7927 99.1103H76.7615V97.4379H85.1295Z" fill="black"/>
<path d="M85.1293 97.4379V99.1103H76.7613L54.5308 71.2629V69.9474H59.1911L85.1293 97.4379Z" fill="#F1C0C0"/>
<path opacity="0.1" d="M85.1293 97.4379V99.1103H76.7613L54.5308 71.2629V69.9474H59.1911L85.1293 97.4379Z" fill="black"/>
<path opacity="0.1" d="M85.1293 97.4379V99.1103H76.7613L54.5308 71.2629V69.9474L76.8816 97.4379H85.1293Z" fill="black"/>
<path d="M57.4449 125.349C57.4595 125.428 57.4578 125.509 57.4397 125.587C57.4217 125.665 57.3877 125.738 57.34 125.803C57.2923 125.867 57.2319 125.921 57.1624 125.96C57.093 126 57.0161 126.025 56.9366 126.034C56.3972 126.217 55.8248 126.397 55.4426 126.81C55.0604 127.223 54.9847 127.99 55.4426 128.326C55.6767 128.467 55.9454 128.54 56.2187 128.537C57.0976 128.597 58.0134 128.586 58.8108 128.213C59.3812 127.949 59.9186 127.499 60.5453 127.54C60.8693 127.559 61.2147 127.71 61.5038 127.563C61.7928 127.416 61.8743 127.004 61.8763 126.661C61.8836 125.944 61.7755 125.231 61.5561 124.548C61.527 124.455 60.2931 124.383 60.1456 124.354L58.6497 124.16C58.3665 124.123 57.7553 123.91 57.5322 124.146C57.3091 124.383 57.4449 125.068 57.4449 125.349Z" fill="#F92020"/>
<path d="M66.3716 120.507C66.4349 120.856 66.5377 121.197 66.6781 121.523C66.8857 122.051 67.1515 122.612 67.6599 122.868C68.1216 123.099 68.6882 123.015 69.1577 122.796C69.3536 122.715 69.5254 122.585 69.6563 122.418C69.8078 122.154 69.8754 121.85 69.8503 121.547C69.8503 120.796 69.8057 120.02 69.4623 119.352C69.1674 118.77 68.6532 118.27 68.6455 117.625L66.878 117.967C66.7833 117.976 66.6932 118.012 66.618 118.07C66.562 118.129 66.5231 118.202 66.5055 118.281C66.3167 119.007 66.2713 119.763 66.3716 120.507V120.507Z" fill="#F92020"/>
<path d="M45.2644 102.075C45.1907 102.7 45.2218 103.369 45.5477 103.908C45.8737 104.448 46.5605 104.805 47.1542 104.589C47.1846 104.582 47.2131 104.568 47.2381 104.549C47.2631 104.53 47.2841 104.506 47.2997 104.479C47.3155 104.413 47.3065 104.344 47.2745 104.285C47.0124 103.585 47.0339 102.811 47.3346 102.127C47.3734 102.038 47.4568 101.933 47.548 101.968C47.5862 101.988 47.6169 102.019 47.6353 102.057C47.7293 102.22 47.7763 102.405 47.7712 102.593C47.7438 102.763 47.7385 102.936 47.7556 103.107C47.7925 103.274 47.971 103.431 48.1262 103.359C48.1711 103.332 48.2099 103.295 48.2402 103.252C48.2706 103.209 48.2919 103.161 48.3028 103.109C48.7354 101.858 48.5395 100.49 48.3416 99.1802C48.3432 99.1501 48.3382 99.12 48.327 99.0921C48.3158 99.0642 48.2985 99.039 48.2765 99.0185C48.2545 98.998 48.2282 98.9825 48.1996 98.9732C48.1709 98.9639 48.1406 98.9611 48.1107 98.9648C47.1949 98.8736 46.6944 98.6544 46.1705 99.5061C45.7204 100.224 45.2644 101.212 45.2644 102.075Z" fill="#F92020"/>
<path d="M55.9704 98.891C55.6987 100.02 55.4252 101.163 55.4077 102.323C55.4125 103.046 55.4669 103.767 55.5707 104.483L55.7744 106.163C55.8443 106.729 55.9122 107.294 56.0111 107.855C56.0742 108.144 56.1087 108.438 56.1139 108.734C56.0949 109.025 56.0488 109.314 55.9762 109.597C55.8542 110.191 55.786 110.795 55.7725 111.401C55.7511 112.371 55.8714 113.341 55.9471 114.312C56.0981 116.245 56.0754 118.188 55.8792 120.117C55.8008 120.637 55.9139 121.169 56.1974 121.612C56.3124 121.752 56.4071 121.908 56.4787 122.074C56.6242 122.519 56.2847 122.963 56.1974 123.419C56.1415 123.774 56.2291 124.137 56.4408 124.429C56.6525 124.72 56.9711 124.915 57.3266 124.971C58.8787 125.155 60.4735 125.072 61.8724 125.782C62.0199 125.351 61.6978 124.862 61.8452 124.424C61.9384 124.152 62.1945 123.976 62.3691 123.747C62.6037 123.398 62.7206 122.983 62.7028 122.563C62.7096 122.015 62.6122 121.47 62.4156 120.959C62.2507 120.532 62.014 120.111 62.0276 119.653C62.0276 119.428 62.1072 119.191 62.016 118.984C61.9534 118.864 61.8685 118.758 61.7657 118.671C61.1858 118.036 60.8295 117.229 60.751 116.372C60.6753 115.522 60.7027 114.666 60.8325 113.823C60.9275 113.019 61.0556 112.172 61.5659 111.545C61.3292 109.645 61.4683 107.716 61.9752 105.87C62.0257 105.699 62.1052 105.501 62.2798 105.46C62.3492 105.453 62.4193 105.463 62.4841 105.489C62.5489 105.514 62.6066 105.555 62.6523 105.608C62.957 105.893 63.1025 106.306 63.2344 106.702C63.3799 107.131 63.5274 107.589 63.4168 108.027C63.3702 108.221 63.2771 108.392 63.2228 108.578C63.1047 108.953 63.1254 109.357 63.281 109.717C63.3568 109.849 63.4044 109.995 63.4207 110.146C63.4027 110.276 63.3633 110.402 63.3043 110.519C63.2323 110.748 63.2094 110.99 63.2372 111.229C63.2649 111.468 63.3426 111.699 63.4653 111.906C63.7126 112.318 64.0177 112.692 64.3714 113.017C64.2024 113.762 64.2461 114.539 64.4975 115.26C64.5156 115.293 64.5272 115.329 64.5315 115.366C64.5358 115.402 64.5328 115.44 64.5227 115.476C64.4878 115.549 64.3985 115.577 64.3287 115.629C64.1346 115.788 64.2549 116.089 64.3849 116.296C64.7412 116.866 65.1346 117.412 65.5626 117.93C65.9507 118.394 65.9157 119.288 66.4939 119.455C66.7369 119.507 66.9882 119.507 67.2312 119.455C67.8016 119.368 68.438 119.203 68.7174 118.698C68.8318 118.491 68.8784 118.239 69.0569 118.083C69.2354 117.928 69.4663 117.901 69.5652 117.715C69.6642 117.528 69.5536 117.284 69.5866 117.069C69.6195 116.853 69.8077 116.681 69.8679 116.454C70.0115 115.93 69.4003 115.499 69.3169 114.963C69.1966 114.187 70.1744 113.605 70.1337 112.829C70.0483 111.143 69.994 109.449 69.9067 107.763C69.7971 106.253 69.7816 104.738 69.8601 103.225C69.928 102.284 70.0541 101.299 69.7088 100.424C69.2121 99.1898 67.8423 98.4972 66.5172 98.3652C65.192 98.2333 63.8708 98.5476 62.5573 98.7533C60.3773 99.0892 58.1625 99.1356 55.9704 98.891V98.891Z" fill="#3F3D56"/>
<path d="M59.909 80.3468C61.6255 80.3468 63.0171 78.9552 63.0171 77.2386C63.0171 75.522 61.6255 74.1304 59.909 74.1304C58.1924 74.1304 56.8008 75.522 56.8008 77.2386C56.8008 78.9552 58.1924 80.3468 59.909 80.3468Z" fill="#FBBEBE"/>
<path d="M58.644 80.9269C58.5384 81.1727 58.3608 81.3809 58.1347 81.5239C57.9086 81.6669 57.6444 81.7381 57.377 81.7282C57.2645 82.1938 57.5342 82.6634 57.8427 83.0301C58.4832 83.7755 59.3111 84.3365 60.2407 84.6554C61.1704 84.9743 62.1683 85.0394 63.1316 84.8441C63.5064 84.777 63.8621 84.6287 64.1735 84.4095C64.5933 84.059 64.8752 83.5708 64.9689 83.032C65.0582 82.4969 65.0836 81.953 65.0446 81.4119C65.0555 81.3051 65.0249 81.1981 64.9592 81.1131C64.8817 81.0531 64.7857 81.0215 64.6876 81.0239C64.0318 80.9657 63.347 80.9405 62.7707 80.6184C62.1945 80.2963 61.7851 79.5688 62.0626 78.9712C62.0179 79.0643 60.8849 79.1089 60.7355 79.1283C60.2679 79.1943 59.8003 79.268 59.3347 79.3534C59.1109 79.3657 58.8898 79.4074 58.6769 79.4776C58.3956 79.6231 58.5004 79.5513 58.5664 79.8152C58.6653 80.2187 58.8108 80.5078 58.644 80.9269Z" fill="#FBBEBE"/>
<path d="M61.009 82.8167C60.5904 82.8215 60.1728 82.7752 59.7654 82.6789C59.354 82.5828 58.9915 82.3409 58.7449 81.9979C58.6013 81.7806 58.5082 81.507 58.2792 81.3848C57.9048 81.1908 57.4779 81.5187 57.1791 81.8194C56.9071 82.116 56.5918 82.3698 56.244 82.5722C55.8288 82.7914 55.3437 82.8691 54.9518 83.1271C54.6456 83.3584 54.3829 83.6422 54.1757 83.9653L51.4265 87.7098C50.3225 89.2154 49.3621 90.8315 48.3785 92.4206C47.5267 93.7961 47.0805 95.3793 46.4383 96.8636C46.3874 96.9544 46.3664 97.0589 46.3781 97.1624C46.4014 97.2632 46.5237 97.3447 46.609 97.2865C46.3199 97.5737 46.5741 98.0626 46.5062 98.4662C46.429 98.7485 46.268 99.0009 46.0444 99.1898C46.4715 99.1341 46.905 99.1545 47.325 99.25C47.759 99.373 48.1685 99.5699 48.5356 99.832C48.7704 99.7952 48.749 99.378 48.9237 99.2228C49.0284 99.1316 49.1836 99.1433 49.3214 99.1161C49.8394 99.0152 50.0451 98.3924 50.4428 98.0413C50.7746 97.7483 51.2441 97.6532 51.5953 97.3777C52.1657 96.9295 52.2879 96.1321 52.5867 95.4705C52.8409 94.9098 53.2406 94.4209 53.4637 93.8466C53.6092 93.4741 53.679 93.0705 53.8866 92.7271C54.2184 92.1722 54.8432 91.8773 55.4388 91.6115C55.8152 91.4427 56.2149 91.2681 56.6204 91.2952C56.599 92.1974 56.4845 93.086 56.6805 93.9669C56.7484 94.2773 56.8435 94.58 56.925 94.8885C57.2955 96.2776 57.3829 97.725 57.4003 99.1569C58.2917 98.9529 59.2022 98.8436 60.1166 98.8309C60.8364 98.8096 61.5542 98.9027 62.274 98.8891C63.1277 98.8736 63.9717 98.7087 64.8254 98.6505C65.6791 98.5923 66.5715 98.6505 67.3263 99.0385C67.265 97.8089 67.2994 96.5764 67.4291 95.3522L67.6348 93.4236C67.6812 92.8633 67.7674 92.307 67.8928 91.759C68.0053 91.3166 68.1683 90.8898 68.2925 90.4493C68.729 88.8972 68.6495 87.2403 68.5661 85.6241C68.5234 84.7937 68.2032 83.9769 67.8268 83.2377C67.6906 82.9631 67.535 82.6986 67.3612 82.4461C66.9064 81.8194 66.3002 81.3181 65.5993 80.9891C64.8983 80.66 64.1255 80.5138 63.3528 80.5641C63.2541 80.5672 63.1568 80.5882 63.0656 80.6262C62.9019 80.7311 62.774 80.8833 62.6989 81.0627C62.2975 81.7842 61.7151 82.3887 61.009 82.8167Z" fill="#3F3D56"/>
<path d="M57.1752 78.2689C57.2625 78.0748 57.4972 78.0031 57.6408 77.8478C57.9163 77.5529 57.7921 77.0815 57.8348 76.6837C57.9047 76.1017 58.3878 75.6147 58.9407 75.4071C59.5046 75.2261 60.1047 75.1881 60.6869 75.2965C60.9672 75.317 61.2379 75.407 61.4746 75.5584C61.5755 75.6322 61.6686 75.7272 61.7637 75.7951C61.937 75.8999 62.1444 75.9327 62.3416 75.8867C62.5388 75.8407 62.7101 75.7194 62.8192 75.5487C62.1323 74.7222 61.3718 73.8491 60.328 73.595C59.9699 73.5219 59.605 73.4874 59.2395 73.4921C58.7564 73.4824 58.2578 73.4747 57.8116 73.659C57.2043 73.9093 56.7774 74.4855 56.5582 75.1064C56.3665 75.7357 56.2639 76.3888 56.2536 77.0465C56.2138 77.4854 56.2138 77.927 56.2536 78.3659C56.3286 78.9652 56.5513 79.5366 56.9016 80.0286C56.949 80.105 57.016 80.1673 57.0956 80.209C57.9803 80.5971 57.1034 78.4299 57.1752 78.2689Z" fill="#3F3D56"/>
<path d="M62.7182 75.0695C62.6114 74.1557 61.9595 73.401 61.2669 72.7937C60.7086 72.2671 60.0436 71.8668 59.317 71.6199C58.5856 71.4045 57.7435 71.4511 57.1169 71.8876C56.6124 72.2388 56.2923 72.7976 56.0459 73.3602C55.7222 74.0242 55.5619 74.7559 55.5783 75.4944C55.6268 76.2278 55.9838 76.9709 56.6202 77.3415C56.8491 77.0039 57.2469 76.8293 57.6291 76.6915C59.2949 76.0595 60.9938 75.518 62.7182 75.0695V75.0695Z" fill="#FED253"/>
<path opacity="0.1" d="M56.8337 74.6892C56.8958 74.6892 56.9365 74.7532 56.9676 74.8056C57.1255 75.0517 57.2612 75.3115 57.3731 75.5817C57.1461 75.6302 56.7561 75.6845 56.6436 75.4847C56.5834 75.3838 56.6552 74.6795 56.8337 74.6892Z" fill="black"/>
<path opacity="0.1" d="M61.2554 74.2508C61.2088 74.2954 61.1545 74.2042 61.1545 74.1382V73.3855C61.1532 73.3645 61.1579 73.3437 61.1681 73.3253C61.1761 73.3161 61.1859 73.3086 61.1969 73.3033C61.2079 73.298 61.2199 73.2949 61.2321 73.2943C61.3893 73.2768 61.5193 73.4107 61.6201 73.5387C61.7732 73.7463 61.9064 73.9678 62.0179 74.2003L61.1972 74.1751" fill="black"/>
<path d="M71.4975 86.7164C71.676 86.547 71.8667 86.3907 72.0679 86.2488C72.6053 85.8899 73.2553 85.7483 73.8587 85.5193C74.4621 85.2904 75.0752 84.9198 75.31 84.3184C75.4275 83.9423 75.4658 83.5459 75.4225 83.1543C75.4281 82.9903 75.399 82.827 75.3371 82.675C75.2633 82.5408 75.1581 82.4263 75.0306 82.3413C74.2118 81.736 73.1137 81.6875 72.097 81.7496C69.8556 81.8886 67.6586 82.437 65.6149 83.3677C65.5068 83.4034 65.4121 83.471 65.3432 83.5617C65.3035 83.6458 65.2854 83.7385 65.2909 83.8314C65.2547 84.4035 65.3292 84.9773 65.5101 85.5213C65.7778 86.212 66.3289 86.7688 66.5597 87.4731C66.6645 87.7893 66.6994 88.125 66.7906 88.4432C66.8654 88.7718 67.0598 89.0609 67.3358 89.2542C68.1022 89.7121 68.8259 89.097 69.3575 88.6198L71.4975 86.7164Z" fill="#3F3D56"/>
<path d="M61.4611 89.4036L60.4774 87.2578C60.3332 86.9604 60.2088 86.6538 60.1049 86.34C59.9924 85.9656 59.9381 85.5776 59.8333 85.2012C59.488 83.9478 58.6168 82.904 58.1919 81.6759C58.1651 81.565 58.1103 81.4628 58.0328 81.379C57.9708 81.3351 57.8999 81.3054 57.8251 81.292C57.7504 81.2786 57.6736 81.2818 57.6002 81.3014C57.0065 81.4042 56.5428 81.8563 55.9995 82.1124C55.7473 82.2288 55.4757 82.3064 55.2234 82.4403C55.0974 82.5 54.9857 82.5862 54.8959 82.693C54.8062 82.7998 54.7405 82.9247 54.7035 83.0592C54.6433 83.356 54.7908 83.6412 54.9149 83.9303C55.4427 85.1216 55.563 86.4526 55.5863 87.7564C55.6037 88.6333 55.5591 89.5743 55.0411 90.2786C54.0458 91.6367 54.6821 93.6312 55.0546 95.2746C55.0993 95.4686 55.1517 95.6781 55.1827 95.8838C55.2155 96.1411 55.2304 96.4005 55.2273 96.6599C55.2273 97.531 55.1788 98.4293 54.8141 99.219C55.1742 99.4106 55.5711 99.523 55.9782 99.5488C57.1048 99.6924 58.2359 99.7932 59.3715 99.8515C59.7274 99.8849 60.0861 99.8666 60.4367 99.7971C60.853 99.6846 61.22 99.4366 61.4796 99.0923C61.7393 98.748 61.8768 98.327 61.8705 97.8958C61.9326 98.4332 62.0471 99.0172 62.437 99.3897C62.827 99.7622 63.3955 99.8185 63.9251 99.8476C65.42 99.9269 66.9189 99.8847 68.407 99.7215C68.5019 99.7172 68.5953 99.6955 68.6825 99.6574C68.9696 99.5139 68.9851 99.1181 68.9619 98.7999C68.9192 98.2042 68.8745 97.6086 68.8028 97.0169C68.7419 96.6396 68.7108 96.2582 68.7096 95.876C68.7392 95.483 68.8042 95.0933 68.9036 94.7119C69.1636 93.5012 69.3693 92.2654 69.282 91.0256C69.2475 90.7236 69.2352 90.4194 69.2451 90.1156C69.2956 89.4307 69.6564 88.7789 69.5885 88.0979C69.3945 86.0956 69.2374 84.0409 68.6786 82.1085C68.5777 81.7632 68.4497 81.3926 68.1489 81.1947C67.7609 80.9347 67.2157 81.0705 66.7714 80.9056C66.5629 80.8086 66.3647 80.6909 66.1796 80.5544C65.7776 80.303 65.3167 80.1612 64.8429 80.1431C64.4859 80.1295 64.0881 80.2091 63.8728 80.4962C63.773 80.6579 63.707 80.8381 63.6787 81.0259C63.3974 82.2094 63.0676 83.3793 62.7378 84.5493L62.4215 85.6707L61.5736 88.6818C61.4902 89.002 61.5465 89.1009 61.4611 89.4036Z" fill="#F92020"/>
<path d="M66.4222 77.6558L85.1896 97.3777V99.0502H76.8216L62.7184 80.6437" fill="#F1C0C0"/>
<path opacity="0.1" d="M66.4222 77.6558L85.1896 97.3777V99.0502H76.8216L62.7184 80.6437" fill="black"/>
<path opacity="0.1" d="M63.0172 80.3837L63.0773 80.405L76.9418 97.3777H85.1896V99.0502H76.8216L62.7184 80.6437L63.0172 80.3837Z" fill="black"/>
<path d="M65.1767 80.7989C64.4977 81.0957 63.7429 81.476 63.5392 82.19C63.499 82.3153 63.4903 82.4486 63.514 82.578C63.5636 82.7302 63.6583 82.8638 63.7854 82.9612C63.9125 83.0585 64.0662 83.115 64.2261 83.1232C64.5455 83.131 64.8632 83.0728 65.1593 82.9525L69.1658 81.6293C69.2744 81.5943 69.3986 81.542 69.4257 81.4353C69.4327 81.3681 69.4192 81.3005 69.3869 81.2412C69.2628 80.9386 69.1405 80.3196 68.8805 80.1082C68.6671 79.9374 68.2442 79.9976 67.9861 80.0015C66.9928 80.0092 66.0595 80.4108 65.1767 80.7989Z" fill="#F92020"/>
<path d="M68.7484 81.7864C69.4234 81.7845 70.0945 81.8886 70.7371 82.0949C71.3827 82.3045 71.9544 82.6951 72.3843 83.2202C72.5095 83.367 72.5986 83.5411 72.6443 83.7286C72.6831 83.9226 73.3156 84.039 73.1759 84.1709C73.6008 84.103 73.4999 84.3029 73.9307 84.299C74.3614 84.2951 74.827 84.1845 75.0851 83.8411C75.2644 83.559 75.3442 83.2251 75.3121 82.8923C75.3177 82.662 75.2741 82.4331 75.184 82.221C74.99 81.8136 74.5438 81.5944 74.1324 81.4062L70.6673 79.821C70.4663 79.7141 70.2505 79.6376 70.027 79.594C69.8389 79.5763 69.6494 79.5808 69.4624 79.6076L67.8928 79.7881C68.2361 80.0102 68.5155 80.3179 68.7037 80.6809C68.8918 81.0439 68.9821 81.4497 68.9657 81.8582" fill="#3F3D56"/>
</svg>
